<svg width="71" height="29" viewBox="0 0 71 29" fill="none" xmlns="http://www.w3.org/2000/svg">
<path d="M15.2021 18.7558C16.6678 18.7457 17.7848 18.4071 18.553 17.7399C19.3212 17.0728 19.7054 16.2945 19.7054 15.4049C19.7054 15.3039 19.6498 15.2533 19.5386 15.2533H16.0058C13.8527 15.2533 12.7762 15.8952 12.7762 17.1789C12.7762 17.5731 12.9682 17.932 13.3523 18.2555C13.7365 18.5789 14.3531 18.7457 15.2021 18.7558ZM15.8541 12.145H18.7653C19.0584 12.145 19.2859 12.0743 19.4476 11.9328C19.6093 11.7912 19.6953 11.6346 19.7054 11.4627C19.7054 9.99703 18.6693 9.26419 16.5971 9.26419C14.5249 9.26419 13.4282 9.94649 13.3069 11.3111C13.3069 11.4122 13.2563 11.4627 13.1552 11.4627H9.75887C9.65779 11.4627 9.60725 11.4122 9.60725 11.3111C9.60725 9.57249 10.2592 8.2281 11.5632 7.27792C12.8671 6.32775 14.5502 5.84761 16.6122 5.8375C18.6743 5.84761 20.327 6.35807 21.5703 7.3689C22.8136 8.37972 23.4302 9.8353 23.4201 11.7356V17.7703C23.4302 18.0836 23.5364 18.3262 23.7385 18.4981C23.9407 18.6699 24.2086 18.7558 24.5421 18.7558H25.0122C25.1133 18.7558 25.1638 18.8064 25.1638 18.9074V21.7125C25.1638 21.8135 25.1133 21.8641 25.0122 21.8641H23.4201C22.0757 21.8641 21.0649 21.3688 20.3877 20.3782C20.2967 20.2771 20.2007 20.2771 20.0996 20.3782C18.8866 21.571 17.2592 22.1673 15.2173 22.1673C13.1754 22.1673 11.639 21.7074 10.608 20.7876C9.57692 19.8677 9.0614 18.68 9.0614 17.2244C9.0614 15.7688 9.65273 14.5558 10.8354 13.5855C12.0282 12.6151 13.7011 12.1349 15.8541 12.145Z" fill="white"/>
<path d="M35.5227 17.467C36.2101 16.6078 36.5538 15.4555 36.5538 14.01C36.5538 12.5645 36.2101 11.4122 35.5227 10.553C34.8252 9.69379 33.8549 9.26419 32.6115 9.26419C31.3682 9.26419 30.4332 9.69379 29.8065 10.553C29.1798 11.4122 28.8614 12.5645 28.8513 14.01C28.8513 17.1739 30.0845 18.7558 32.5509 18.7558C33.8346 18.7558 34.8252 18.3262 35.5227 17.467ZM33.1726 5.8375C35.3458 5.84761 37.0743 6.60067 38.3581 8.09669C39.6418 9.59271 40.2837 11.5537 40.2837 13.9797C40.2837 16.4056 39.6165 18.3768 38.2823 19.893C36.948 21.4092 35.2447 22.1673 33.1726 22.1673C31.4744 22.1673 30.13 21.672 29.1394 20.6814C29.0686 20.6208 29.0029 20.6006 28.9423 20.6208C28.8816 20.641 28.8513 20.6915 28.8513 20.7724V27.8532C28.8513 27.9543 28.8007 28.0099 28.6997 28.02H25.2881C25.1871 28.02 25.1365 27.9644 25.1365 27.8532V6.30753C25.1365 6.20645 25.1871 6.15591 25.2881 6.15591H28.2296C28.3711 6.15591 28.4773 6.20645 28.548 6.30753L28.8513 7.29308C28.9423 7.4346 29.0585 7.4346 29.2 7.29308C29.5942 6.89886 30.1654 6.56024 30.9134 6.27721C31.6614 5.99418 32.4144 5.84761 33.1726 5.8375Z" fill="white"/>
<path d="M54.176 21.8641H50.7645C50.6634 21.8641 50.6129 21.8135 50.6129 21.7125V13.2367C50.6129 12.1956 50.3248 11.2909 49.7486 10.5227C49.1725 9.75444 48.3133 9.37032 47.171 9.37032C46.0288 9.37032 45.1747 9.714 44.6086 10.4014C44.0425 11.0685 43.7544 11.9075 43.7443 12.9183V21.7125C43.7443 21.8135 43.6938 21.8641 43.5927 21.8641H40.1812C40.0801 21.8641 40.0296 21.8135 40.0296 21.7125V0.151623C40.0296 0.0505411 40.0801 0 40.1812 0H43.5927C43.6938 0 43.7443 0.0505411 43.7443 0.151623V7.20211C43.7443 7.3133 43.7747 7.379 43.8353 7.39922C43.896 7.41944 44.0577 7.29814 44.3205 7.03532C44.5833 6.77251 45.0786 6.5097 45.8064 6.24688C46.5443 5.98407 47.2064 5.84761 47.7927 5.8375C49.9457 5.8375 51.5782 6.54002 52.6901 7.94506C53.802 9.35011 54.3529 11.114 54.3428 13.2367V21.7125C54.3327 21.8135 54.2771 21.8641 54.176 21.8641Z" fill="white"/>
<path d="M60.3277 18.7558C61.7934 18.7457 62.9103 18.4071 63.6786 17.7399C64.4468 17.0728 64.8309 16.2945 64.8309 15.4049C64.8309 15.3039 64.7753 15.2533 64.6641 15.2533H61.1313C58.9782 15.2533 57.9017 15.8952 57.9017 17.1789C57.9017 17.5731 58.0938 17.932 58.4779 18.2555C58.862 18.5789 59.4786 18.7457 60.3277 18.7558ZM60.9797 12.145H63.8908C64.184 12.145 64.4114 12.0743 64.5731 11.9328C64.7349 11.7912 64.8208 11.6346 64.8309 11.4627C64.8309 9.99703 63.7948 9.26419 61.7226 9.26419C59.6504 9.26419 58.5537 9.94649 58.4324 11.3111C58.4324 11.4122 58.3819 11.4627 58.2808 11.4627H54.8844C54.7833 11.4627 54.7328 11.4122 54.7328 11.3111C54.7328 9.57249 55.3848 8.2281 56.6887 7.27792C57.9927 6.32775 59.6757 5.84761 61.7378 5.8375C63.7999 5.84761 65.4526 6.35807 66.6959 7.3689C67.9392 8.37972 68.5558 9.8353 68.5457 11.7356V17.7703C68.5558 18.0836 68.6619 18.3262 68.8641 18.4981C69.0663 18.6699 69.3341 18.7558 69.6677 18.7558H70.1377C70.2388 18.7558 70.2893 18.8064 70.2893 18.9074V21.7125C70.2893 21.8135 70.2388 21.8641 70.1377 21.8641H68.5457C67.2013 21.8641 66.1905 21.3688 65.5132 20.3782C65.4222 20.2771 65.3262 20.2771 65.2251 20.3782C64.0121 21.571 62.3847 22.1673 60.3429 22.1673C58.301 22.1673 56.7645 21.7074 55.7335 20.7876C54.7025 19.8677 54.1869 18.68 54.1869 17.2244C54.1869 15.7688 54.7783 14.5558 55.9609 13.5855C57.1537 12.6151 58.8266 12.1349 60.9797 12.145Z" fill="white"/>
<path d="M7.85191 9.4162C6.70968 9.40609 5.85554 9.73461 5.28948 10.4018C4.72341 11.0689 4.44038 11.9079 4.44038 12.9187V21.7129C4.44038 21.8139 4.38984 21.8645 4.28876 21.8645H0.831748C0.750882 21.8645 0.710449 21.8139 0.710449 21.7129V6.30792C0.710449 6.20684 0.750882 6.1563 0.831748 6.1563H3.81873C3.96024 6.1563 4.06133 6.21695 4.12198 6.33825L4.44038 7.26315C4.52125 7.40467 4.61222 7.42994 4.71331 7.33896C5.70391 6.34836 6.85625 5.848 8.17032 5.83789H9.8685C9.96958 5.83789 10.0252 5.88843 10.0353 5.98951V9.26458C10.0353 9.36566 9.97969 9.4162 9.8685 9.4162H7.85191Z" fill="white"/>
</svg>
